<?xml version="1.0" encoding="iso-8859-1"?>
<!-- Uploaded to: SVG Repo, www.svgrepo.com, Generator: SVG Repo Mixer Tools -->
<svg fill="#000000" version="1.1" id="Layer_1" xmlns="http://www.w3.org/2000/svg" xmlns:xlink="http://www.w3.org/1999/xlink" 
	 viewBox="0 0 491.52 491.52" xml:space="preserve">
<g>
	<g>
		<path d="M61.44,0v491.52h368.64V0H61.44z M409.6,471.04H81.92V409.6H409.6V471.04z M409.6,389.12H81.92V81.92H409.6V389.12z
			 M409.6,61.44H81.92V20.48H409.6V61.44z"/>
	</g>
</g>
<g>
	<g>
		<rect x="194.56" y="430.08" width="102.4" height="20.48"/>
	</g>
</g>
<g>
	<g>
		<rect x="194.56" y="30.72" width="61.44" height="20.48"/>
	</g>
</g>
<g>
	<g>
		<rect x="276.48" y="30.72" width="20.48" height="20.48"/>
	</g>
</g>
<g>
	<g>
		<path d="M245.76,112.64c-28.23,0-51.2,22.97-51.2,51.2c0,28.23,22.97,51.2,51.2,51.2s51.2-22.97,51.2-51.2
			C296.96,135.61,273.99,112.64,245.76,112.64z M245.76,194.56c-16.94,0-30.72-13.78-30.72-30.72s13.78-30.72,30.72-30.72
			s30.72,13.78,30.72,30.72S262.7,194.56,245.76,194.56z"/>
	</g>
</g>
<g>
	<g>
		<path d="M307.27,222.805l-13.25-3.915l-48.26,48.265L197.5,218.89l-13.29,3.925c-30.56,9.165-51.09,36.76-51.09,68.66V358.4H358.4
			v-66.925C358.4,259.575,337.87,231.98,307.27,222.805z M337.92,337.92H153.6v-46.445c0-22.785,14.66-42.495,36.45-49.03
			l1.57-0.465l54.14,54.135l54.14-54.135l1.53,0.455c21.83,6.545,36.49,26.255,36.49,49.04V337.92z"/>
	</g>
</g>
</svg>